<svg width="86" height="28" viewBox="0 0 86 28" fill="none" xmlns="http://www.w3.org/2000/svg">
  <g clip-path="url(#clip0)">
    <path d="M61.2742 8.61552C59.1349 8.61273 57.0555 9.32311 55.3637 10.6347L55.3435 10.6509L55.2774 10.7026L50.7931 14.2079L42.2849 20.8624C41.7085 21.3089 40.9983 21.5468 40.2697 21.5372C39.5412 21.5277 38.8374 21.2713 38.273 20.8098C37.7085 20.3483 37.3167 19.709 37.1613 18.9959C37.0058 18.2828 37.096 17.538 37.4171 16.8829C37.7382 16.2277 38.2713 15.7008 38.9296 15.3879C39.5878 15.075 40.3324 14.9947 41.0421 15.1599C41.7517 15.3251 42.3846 15.7262 42.8376 16.2978C43.2907 16.8694 43.5372 17.5779 43.537 18.3077C43.5365 18.4354 43.5287 18.563 43.5136 18.6898L50.0183 13.6014L46.3048 10.6937L46.25 10.6509L46.2225 10.6291C44.7912 9.52246 43.0789 8.83981 41.2799 8.65853C39.4809 8.47725 37.6673 8.80461 36.0446 9.60348C34.4219 10.4023 33.0551 11.6408 32.0992 13.1782C31.1434 14.7157 30.6368 16.4908 30.6368 18.3021C30.6368 20.1134 31.1434 21.8884 32.0992 23.4259C33.0551 24.9634 34.4219 26.2018 36.0446 27.0007C37.6673 27.7996 39.4809 28.1269 41.2799 27.9456C43.0789 27.7644 44.7912 27.0817 46.2225 25.9751L46.2306 25.9694L46.3169 25.9016L50.7931 22.4067L59.3014 15.7498C59.8776 15.3034 60.5877 15.0655 61.3161 15.075C62.0444 15.0845 62.7482 15.3407 63.3126 15.8019C63.8771 16.2632 64.2691 16.9023 64.4247 17.6152C64.5804 18.328 64.4905 19.0727 64.1698 19.7279C63.8491 20.3831 63.3164 20.9102 62.6585 21.2235C62.0006 21.5367 61.2562 21.6176 60.5465 21.4529C59.8369 21.2882 59.2038 20.8877 58.7503 20.3166C58.2969 19.7455 58.0498 19.0375 58.0493 18.3077C58.0497 18.1798 58.0575 18.0519 58.0727 17.9249L51.5671 23.0133L55.2911 25.9266L55.3185 25.9484L55.3637 25.9832C56.5818 26.9249 58.0065 27.562 59.5196 27.8416C61.0328 28.1212 62.5906 28.0352 64.0639 27.5908C65.5372 27.1464 66.8835 26.3564 67.991 25.2864C69.0985 24.2163 69.9352 22.8971 70.4318 21.4381C70.9283 19.9792 71.0704 18.4227 70.8462 16.8977C70.622 15.3728 70.0379 13.9234 69.1425 12.6699C68.2471 11.4164 67.0662 10.3949 65.6978 9.69017C64.3293 8.98547 62.8129 8.61789 61.2742 8.61795V8.61552Z" fill="url(#paint0_linear)"/>
    <path d="M29.3955 8.71253C29.3552 8.70041 29.3149 8.68991 29.2738 8.67941C28.4025 8.45233 27.5053 8.34072 26.6051 8.34746C25.8042 8.34582 25.0155 8.5434 24.3097 8.92246C23.6038 9.30153 23.003 9.85023 22.561 10.5193C22.453 9.44752 21.6338 8.61561 19.8867 8.61561H18.812C16.931 8.6148 16.1248 9.57917 16.1248 10.7689V25.8459C16.1248 27.0349 16.931 27.9992 18.812 27.9992H19.8875C21.7685 27.9992 22.5747 27.0349 22.5747 25.8459V17.9686C22.5745 17.4101 22.7188 16.8612 22.9935 16.3752C23.2682 15.8893 23.6639 15.483 24.1421 15.196C24.6203 14.9089 25.1646 14.751 25.7219 14.7375C26.2792 14.724 26.8304 14.8555 27.3219 15.1191L27.346 15.132C27.7808 15.3595 28.287 15.4079 28.7568 15.267C29.2267 15.1261 29.623 14.807 29.8615 14.3776C29.8696 14.3655 29.876 14.3526 29.8825 14.3405C30.5529 13.2707 30.9076 12.0328 30.9056 10.7697C30.9058 10.3103 30.7593 9.86289 30.4876 9.49279C30.216 9.12269 29.8333 8.8493 29.3955 8.71253Z" fill="white"/>
    <path d="M83.849 8.61577C82.6831 8.61577 81.5189 8.67796 80.624 8.74258V4.30758C80.624 3.11867 79.8178 2.1543 77.936 2.1543H76.8629C74.9803 2.1543 74.1741 3.11867 74.1741 4.30758V8.66908C73.833 8.64 73.4654 8.61981 73.0978 8.61981C71.9102 8.61981 70.9475 9.42749 70.9475 11.3118V12.3885C70.9475 14.2736 71.9102 15.0813 73.0978 15.0813C73.4654 15.0813 73.833 15.0611 74.1741 15.0312V19.9274C74.1741 25.8501 76.5928 28.0042 83.0427 28.0042C84.2303 28.0042 85.1922 27.1965 85.1922 25.3114V24.2307C85.1922 22.3464 84.2303 21.5387 83.0427 21.5387H82.2365C81.8324 21.5385 81.4431 21.3864 81.1457 21.1123C80.8483 20.8383 80.6644 20.4624 80.6304 20.059V20.0259C80.6304 19.9912 80.6256 19.9581 80.6256 19.9233C80.6256 19.904 80.6256 19.8846 80.6256 19.8652V19.6536V14.9496C81.5205 15.0142 82.6847 15.0772 83.8506 15.0772C85.0374 15.0772 86 14.2696 86 12.3844V11.3078C86 9.42345 85.0374 8.61577 83.849 8.61577Z" fill="white"/>
    <path d="M12.8998 8.61557C11.734 8.61557 10.5698 8.67776 9.67488 8.74238V7.53812C9.67488 7.25258 9.78811 6.97873 9.98966 6.77682C10.1912 6.57491 10.4646 6.46148 10.7496 6.46148H12.0936C13.2812 6.46148 14.2438 5.65379 14.2438 3.76946V2.69201C14.2438 0.807685 13.2812 0 12.0936 0H10.4811C10.436 0 10.3916 0 10.3465 0C6.41364 0 3.22496 3.32847 3.22496 7.26916V8.66484C2.88473 8.63576 2.51789 8.61557 2.15024 8.61557C0.96265 8.61557 0 9.42325 0 11.3076V12.3842C0 14.2694 0.96265 15.077 2.15024 15.077C2.51789 15.077 2.88473 15.0569 3.22496 15.027V25.8459C3.22496 27.0356 4.0312 28 5.91216 28H6.98768C8.86864 28 9.67488 27.0356 9.67488 25.8459V14.9494C10.5698 15.014 11.7348 15.077 12.8998 15.077C14.0866 15.077 15.0485 14.2694 15.0485 12.3842V11.3076C15.0501 9.42406 14.0882 8.61557 12.8998 8.61557Z" fill="white"/>
  </g>
  <defs>
    <linearGradient id="paint0_linear" x1="38.6205" y1="30.5022" x2="62.9528" y2="6.21341" gradientUnits="userSpaceOnUse">
      <stop stop-color="#FF7488"/>
      <stop offset="0.3" stop-color="#FF077D"/>
      <stop offset="1" stop-color="#7C12AA"/>
    </linearGradient>
    <clipPath id="clip0">
      <path d="M0 0H86V28H0V0Z" fill="white"/>
    </clipPath>
  </defs>
</svg>
